Coordinates
version=1
nRows=23
nColumns=27
inDegrees=yes

Units are S.I. units (second, meters, Newtons, ...)
If the header above contains a line with 'inDegrees', this indicates whether rotational values are in degrees (yes) or radians (no).

endheader
time	pelvis_rotation	pelvis_tilt	pelvis_list	pelvis_tx	pelvis_ty	pelvis_tz	hip_flexion_r	hip_adduction_r	hip_rotation_r	knee_angle_r	knee_rotation_r	knee_adduction_r	knee_angle_r_beta	ankle_angle_r	subtalar_angle_r	mtp_angle_r	hip_flexion_l	hip_adduction_l	hip_rotation_l	knee_angle_l	knee_rotation_l	knee_adduction_l	knee_angle_l_beta	ankle_angle_l	subtalar_angle_l	mtp_angle_l
      7.95000000	      3.54504915	    -41.67587198	      4.49325457	     -0.14283387	      0.68449012	     -1.21393568	    107.23205718	    -10.72033479	     -7.92000545	     85.45500920	     -8.85433046	      8.39159382	      1.49147127	     16.56468846	     -8.50500007	      0.00000000	    105.74077397	     -8.14065922	    -14.22829682	     82.68932345	     -8.89027626	     -9.35611970	      1.44320095	     16.35006953	     -0.98806697	      0.00000000
      7.95500000	      4.31326005	    -41.62304373	      4.93335161	     -0.14248514	      0.68595470	     -1.21451782	    107.07821907	    -11.47647975	     -8.41438496	     85.29643339	     -9.32654983	      8.93682767	      1.48870360	     16.62805989	     -8.50780284	      0.00000000	    105.47171751	     -7.32580843	    -14.78771106	     82.23548862	     -9.37737623	     -9.64144726	      1.43528004	     16.21210956	     -1.25581059	      0.00000000
      7.96000000	      4.18086576	    -41.57673038	      5.09643316	     -0.14248337	      0.68646190	     -1.21409526	    107.02461457	    -11.22804437	     -8.16984356	     85.20296760	     -9.30304797	      8.94474178	      1.48707232	     16.53034065	     -8.63861328	      0.00000000	    105.27680290	     -7.57200945	    -15.07373572	     82.11653437	     -9.38145030	     -9.64398073	      1.43320390	     16.19760107	     -1.13941918	      0.00000000
      7.96500000	      3.93202716	    -41.73926298	      4.87077022	     -0.14288397	      0.68590461	     -1.21336796	    107.21414074	    -10.93150494	     -7.71710582	     85.27236818	     -8.79123707	      8.41776235	      1.48828359	     16.50483880	     -8.47451792	      0.00000000	    105.56404428	     -7.90883181	    -14.47796634	     82.30774549	     -8.89972775	     -9.35346631	      1.43654116	     16.23475880	     -0.90009317	      0.00000000
      7.97000000	      4.47129536	    -41.62511884	      5.08725789	     -0.14248344	      0.68753516	     -1.21371149	    106.90256165	    -11.47942841	     -8.36260097	     85.01900497	     -9.28939952	      8.96731120	      1.48386156	     16.49030154	     -8.66414757	      0.00000000	    105.23598583	     -7.29249900	    -14.93108110	     81.86660664	     -9.37135354	     -9.64257074	      1.42884183	     16.04739295	     -1.16727513	      0.00000000
      7.97500000	      4.26577150	    -41.62596359	      4.91814713	     -0.14243473	      0.68813132	     -1.21318748	    106.76535234	    -11.25003825	     -8.45042977	     84.86487685	     -9.28965088	      8.96402250	      1.48117152	     16.42688493	     -8.71882664	      0.00000000	    105.16614508	     -7.53404460	    -14.89628391	     81.78815262	     -9.36249331	     -9.64333657	      1.42747255	     16.01804352	     -1.06371816	      0.00000000
      7.98000000	      4.50731229	    -41.61563344	      5.13256727	     -0.14242465	      0.68870854	     -1.21307069	    106.73933243	    -11.40011521	     -8.34853716	     84.80177425	     -9.27236426	      8.97138182	      1.48007017	     16.37130387	     -8.78163711	      0.00000000	    105.04416560	     -7.33808242	    -15.01233683	     81.60634597	     -9.36655343	     -9.64320062	      1.42429943	     15.95646453	     -1.06467608	      0.00000000
      7.98500000	      4.37096880	    -41.62920912	      4.78371381	     -0.14233404	      0.68938286	     -1.21257119	    106.52891875	    -11.29845340	     -8.67996365	     84.61984230	     -9.28021427	      8.98270398	      1.47689486	     16.30676694	     -8.88418385	      0.00000000	    105.04694862	     -7.44369231	    -14.72886063	     81.54252844	     -9.34687901	     -9.64411553	      1.42318560	     15.89296198	     -0.97547652	      0.00000000
      7.99000000	      4.66785196	    -41.64790246	      5.20610492	     -0.14234318	      0.68992038	     -1.21249265	    106.61263671	    -11.44873503	     -8.37105284	     84.59811604	     -9.25050983	      8.98624460	      1.47651567	     16.29700875	     -8.89068447	      0.00000000	    104.91420431	     -7.25988876	    -15.05468368	     81.33479870	     -9.35898708	     -9.64371109	      1.41956003	     15.84340294	     -1.01579695	      0.00000000
      7.99500000	      4.48614409	    -41.67067641	      4.72572683	     -0.14222176	      0.69075940	     -1.21195229	    106.34034845	    -11.32727433	     -8.82101522	     84.35619464	     -9.26210004	      8.99306363	      1.47229334	     16.22831094	     -8.98922349	      0.00000000	    104.92198596	     -7.37674388	    -14.66801868	     81.24853138	     -9.33577891	     -9.64623013	      1.41805438	     15.78874601	     -0.90197392	      0.00000000
      8.00000000	      4.43832885	    -41.72541379	      4.43792622	     -0.14213117	      0.69149481	     -1.21153516	    106.18090326	    -11.28923666	     -9.12424002	     84.17350326	     -9.26843521	      8.99786006	      1.46910477	     16.23136652	     -9.05376460	      0.00000000	    104.94665230	     -7.39445342	    -14.40117753	     81.14857872	     -9.31352324	     -9.64245926	      1.41630988	     15.75056472	     -0.80566176	      0.00000000
      8.00500000	      4.40441784	    -41.85374631	      4.14369072	     -0.14243519	      0.69196429	     -1.21094098	    106.14728034	    -11.24210048	     -8.98919640	     83.99547030	     -8.82937897	      8.49824293	      1.46599751	     15.85216671	     -9.10121217	      0.00000000	    105.08694180	     -7.42467435	    -13.68651330	     81.05090926	     -8.86786656	     -9.35039180	      1.41460523	     15.59469608	     -0.76169114	      0.00000000
      8.01000000	      4.95522415	    -41.91783476	      5.26646095	     -0.14248088	      0.69169017	     -1.21102985	    106.63963196	    -11.47369693	     -7.87342530	     84.32818954	     -8.67468233	      8.44037840	      1.47180456	     16.20876408	     -8.66781014	      0.00000000	    104.97015257	     -7.22110830	    -14.54808311	     80.95792028	     -8.84426280	     -9.35517852	      1.41298226	     15.67865675	     -0.64538788	      0.00000000
      8.01500000	      4.95203149	    -41.70695232	      5.30465708	     -0.14194204	      0.69361451	     -1.21083797	    106.14310873	    -11.43107429	     -8.45824789	     83.93378901	     -9.18726526	      8.99977475	      1.46492097	     15.98208626	     -9.23830074	      0.00000000	    104.44534286	     -7.20017222	    -15.16585163	     80.53307692	     -9.33309507	     -9.64692145	      1.40556735	     15.56090401	     -0.68790718	      0.00000000
      8.02000000	      4.97650136	    -41.78559574	      4.87486512	     -0.14176269	      0.69460050	     -1.21052106	    105.90703017	    -11.53599965	     -8.98436924	     83.69388807	     -9.22076049	      8.98934372	      1.46073391	     16.06449750	     -9.06669749	      0.00000000	    104.50905797	     -7.09307404	    -14.71120277	     80.40337739	     -9.30664333	     -9.64626580	      1.40330367	     15.51224291	     -0.62785943	      0.00000000
      8.02500000	      5.47052341	    -41.85332937	      5.43616849	     -0.14177059	      0.69520945	     -1.21054085	    106.07664887	    -11.85815951	     -8.62305987	     83.70671980	     -9.17279897	      9.00818887	      1.46095787	     16.02141795	     -9.11157910	      0.00000000	    104.42302263	     -6.73289760	    -15.04746956	     80.14767336	     -9.30538515	     -9.64745647	      1.39884079	     15.36484661	     -0.74737967	      0.00000000
      8.03000000	      5.05402756	    -42.09279918	      4.84113861	     -0.14205391	      0.69506039	     -1.20959211	    106.14854754	    -11.46521105	     -8.44698745	     83.65172216	     -8.64767991	      8.42991382	      1.45999798	     16.07308950	     -8.77811079	      0.00000000	    104.79402578	     -7.18296464	    -14.12956262	     80.33509370	     -8.76552835	     -9.35385736	      1.40211189	     15.43374075	     -0.38399510	      0.00000000
      8.03500000	      5.71942879	    -41.92668393	      5.47661926	     -0.14155970	      0.69696464	     -1.21001802	    105.89276846	    -12.01625450	     -8.75661600	     83.40613868	     -9.15452599	      9.00855837	      1.45571174	     15.94663022	     -9.11624897	      0.00000000	    104.26885780	     -6.54301907	    -15.00368059	     79.76111693	     -9.28798330	     -9.64771726	      1.39209411	     15.23518401	     -0.64681373	      0.00000000
      8.04000000	      5.58692082	    -41.93367762	      5.42148058	     -0.14141605	      0.69789451	     -1.20956102	    105.74629764	    -11.82344095	     -8.75962186	     83.21280356	     -9.14040460	      9.00925251	      1.45233740	     15.87181960	     -9.21261786	      0.00000000	    104.12461920	     -6.72628381	    -15.06629217	     79.59643890	     -9.27819094	     -9.64926339	      1.38921993	     15.21034754	     -0.51764981	      0.00000000
      8.04500000	      5.48625505	    -41.99913171	      5.11997422	     -0.14123923	      0.69895405	     -1.20913298	    105.54203119	    -11.73809423	     -9.07400360	     82.96073254	     -9.16203595	      8.99153332	      1.44793793	     15.86579881	     -9.15760688	      0.00000000	    104.10174751	     -6.79592488	    -14.82994521	     79.44088764	     -9.26048896	     -9.64987828	      1.38650505	     15.15887370	     -0.42379672	      0.00000000
      8.05000000	      5.87118790	    -42.07522928	      5.56558677	     -0.14121969	      0.69973497	     -1.20912311	    105.65987817	    -11.99602894	     -8.80470268	     82.91330740	     -9.10802416	      9.01728016	      1.44711021	     15.79581962	     -9.19518457	      0.00000000	    104.01226485	     -6.52012345	    -15.10244457	     79.18100708	     -9.26218139	     -9.64688533	      1.38196928	     15.06066016	     -0.43084845	      0.00000000
      8.05500000	      6.02725906	    -42.08980877	      5.59991596	     -0.14108646	      0.70069918	     -1.20893408	    105.53772683	    -12.12344234	     -8.89192583	     82.75467166	     -9.10562094	      9.01549926	      1.44434149	     15.76289651	     -9.16247539	      0.00000000	    103.90005471	     -6.38316027	    -15.07424855	     78.96712811	     -9.24838007	     -9.64719897	      1.37823639	     14.99318508	     -0.40440771	      0.00000000
      8.06000000	      6.14171089	    -42.15827762	      5.64845231	     -0.14096803	      0.70167827	     -1.20871188	    105.47350071	    -12.18878244	     -8.92625217	     82.58736581	     -9.08402079	      9.02859004	      1.44142145	     15.72943429	     -9.16853328	      0.00000000	    103.83234844	     -6.30363425	    -15.08287555	     78.75402448	     -9.23698792	     -9.64662140	      1.37451703	     14.92719228	     -0.35269617	      0.00000000
